<svg width="466" height="144" viewBox="0 0 466 144" fill="none" xmlns="http://www.w3.org/2000/svg">
<path d="M58.1436 24C64.302 13.3333 79.698 13.3333 85.8564 24L120.497 84C126.656 94.6667 118.958 108 106.641 108H37.359C25.0422 108 17.3442 94.6667 23.5026 84L58.1436 24Z" fill="#FDC82B"/>
<path d="M98.1436 24C104.302 13.3333 119.698 13.3333 125.856 24L160.497 84C166.656 94.6667 158.958 108 146.641 108H77.359C65.0422 108 57.3442 94.6667 63.5026 84L98.1436 24Z" fill="#8759F2"/>
<path d="M112 69.5999C105.6 58.6666 92.6402 36.3199 92.0002 34.3999L82.4002 51.1999L71.7812 69.5999H112Z" fill="#FF3E80"/>
<path d="M209.383 54.5664L195.461 97H184.246L203.266 45.8125H210.402L209.383 54.5664ZM220.949 97L206.992 54.5664L205.867 45.8125H213.074L232.199 97H220.949ZM220.316 77.9453V86.207H193.281V77.9453H220.316ZM248.16 45.8125V97H237.648V45.8125H248.16ZM296.957 45.8125V97H286.445V45.8125H296.957ZM312.707 45.8125V54.0742H270.941V45.8125H312.707ZM325.75 67.2578V97H315.625V58.9609H325.152L325.75 67.2578ZM337.211 58.7148L337.035 68.1016C336.543 68.0312 335.945 67.9727 335.242 67.9258C334.562 67.8555 333.941 67.8203 333.379 67.8203C331.949 67.8203 330.707 68.0078 329.652 68.3828C328.621 68.7344 327.754 69.2617 327.051 69.9648C326.371 70.668 325.855 71.5234 325.504 72.5312C325.176 73.5391 324.988 74.6875 324.941 75.9766L322.902 75.3438C322.902 72.8828 323.148 70.6211 323.641 68.5586C324.133 66.4727 324.848 64.6562 325.785 63.1094C326.746 61.5625 327.918 60.3672 329.301 59.5234C330.684 58.6797 332.266 58.2578 334.047 58.2578C334.609 58.2578 335.184 58.3047 335.77 58.3984C336.355 58.4688 336.836 58.5742 337.211 58.7148ZM352.68 58.9609V97H342.52V58.9609H352.68ZM341.887 49.0469C341.887 47.5703 342.402 46.3516 343.434 45.3906C344.465 44.4297 345.848 43.9492 347.582 43.9492C349.293 43.9492 350.664 44.4297 351.695 45.3906C352.75 46.3516 353.277 47.5703 353.277 49.0469C353.277 50.5234 352.75 51.7422 351.695 52.7031C350.664 53.6641 349.293 54.1445 347.582 54.1445C345.848 54.1445 344.465 53.6641 343.434 52.7031C342.402 51.7422 341.887 50.5234 341.887 49.0469ZM371.172 66.2734V111.625H361.047V58.9609H370.434L371.172 66.2734ZM395.254 77.5586V78.2969C395.254 81.0625 394.926 83.6289 394.27 85.9961C393.637 88.3633 392.699 90.4258 391.457 92.1836C390.215 93.918 388.668 95.2773 386.816 96.2617C384.988 97.2227 382.879 97.7031 380.488 97.7031C378.168 97.7031 376.152 97.2344 374.441 96.2969C372.73 95.3594 371.289 94.0469 370.117 92.3594C368.969 90.6484 368.043 88.668 367.34 86.418C366.637 84.168 366.098 81.7539 365.723 79.1758V77.2422C366.098 74.4766 366.637 71.9453 367.34 69.6484C368.043 67.3281 368.969 65.3242 370.117 63.6367C371.289 61.9258 372.719 60.6016 374.406 59.6641C376.117 58.7266 378.121 58.2578 380.418 58.2578C382.832 58.2578 384.953 58.7148 386.781 59.6289C388.633 60.543 390.18 61.8555 391.422 63.5664C392.688 65.2773 393.637 67.3164 394.27 69.6836C394.926 72.0508 395.254 74.6758 395.254 77.5586ZM385.094 78.2969V77.5586C385.094 75.9414 384.953 74.4531 384.672 73.0938C384.414 71.7109 383.992 70.5039 383.406 69.4727C382.844 68.4414 382.094 67.6445 381.156 67.082C380.242 66.4961 379.129 66.2031 377.816 66.2031C376.434 66.2031 375.25 66.4258 374.266 66.8711C373.305 67.3164 372.52 67.9609 371.91 68.8047C371.301 69.6484 370.844 70.6562 370.539 71.8281C370.234 73 370.047 74.3242 369.977 75.8008V80.6875C370.094 82.4219 370.422 83.9805 370.961 85.3633C371.5 86.7227 372.332 87.8008 373.457 88.5977C374.582 89.3945 376.059 89.793 377.887 89.793C379.223 89.793 380.348 89.5 381.262 88.9141C382.176 88.3047 382.914 87.4727 383.477 86.418C384.062 85.3633 384.473 84.1445 384.707 82.7617C384.965 81.3789 385.094 79.8906 385.094 78.2969ZM412.234 58.9609V97H402.074V58.9609H412.234ZM401.441 49.0469C401.441 47.5703 401.957 46.3516 402.988 45.3906C404.02 44.4297 405.402 43.9492 407.137 43.9492C408.848 43.9492 410.219 44.4297 411.25 45.3906C412.305 46.3516 412.832 47.5703 412.832 49.0469C412.832 50.5234 412.305 51.7422 411.25 52.7031C410.219 53.6641 408.848 54.1445 407.137 54.1445C405.402 54.1445 404.02 53.6641 402.988 52.7031C401.957 51.7422 401.441 50.5234 401.441 49.0469ZM418.984 78.3672V77.6289C418.984 74.8398 419.383 72.2734 420.18 69.9297C420.977 67.5625 422.137 65.5117 423.66 63.7773C425.184 62.043 427.059 60.6953 429.285 59.7344C431.512 58.75 434.066 58.2578 436.949 58.2578C439.832 58.2578 442.398 58.75 444.648 59.7344C446.898 60.6953 448.785 62.043 450.309 63.7773C451.855 65.5117 453.027 67.5625 453.824 69.9297C454.621 72.2734 455.02 74.8398 455.02 77.6289V78.3672C455.02 81.1328 454.621 83.6992 453.824 86.0664C453.027 88.4102 451.855 90.4609 450.309 92.2188C448.785 93.9531 446.91 95.3008 444.684 96.2617C442.457 97.2227 439.902 97.7031 437.02 97.7031C434.137 97.7031 431.57 97.2227 429.32 96.2617C427.094 95.3008 425.207 93.9531 423.66 92.2188C422.137 90.4609 420.977 88.4102 420.18 86.0664C419.383 83.6992 418.984 81.1328 418.984 78.3672ZM429.109 77.6289V78.3672C429.109 79.9609 429.25 81.4492 429.531 82.832C429.812 84.2148 430.258 85.4336 430.867 86.4883C431.5 87.5195 432.32 88.3281 433.328 88.9141C434.336 89.5 435.566 89.793 437.02 89.793C438.426 89.793 439.633 89.5 440.641 88.9141C441.648 88.3281 442.457 87.5195 443.066 86.4883C443.676 85.4336 444.121 84.2148 444.402 82.832C444.707 81.4492 444.859 79.9609 444.859 78.3672V77.6289C444.859 76.082 444.707 74.6289 444.402 73.2695C444.121 71.8867 443.664 70.668 443.031 69.6133C442.422 68.5352 441.613 67.6914 440.605 67.082C439.598 66.4727 438.379 66.168 436.949 66.168C435.52 66.168 434.301 66.4727 433.293 67.082C432.309 67.6914 431.5 68.5352 430.867 69.6133C430.258 70.668 429.812 71.8867 429.531 73.2695C429.25 74.6289 429.109 76.082 429.109 77.6289Z" fill="black"/>
</svg>
